<svg width="32" height="32" viewBox="0 0 32 32" fill="none" xmlns="http://www.w3.org/2000/svg">
<path d="M6.91854 8.50659C6.66521 8.50659 6.39854 8.39992 6.21188 8.21325C5.82521 7.82659 5.82521 7.18659 6.21188 6.79992L11.0519 1.95992C11.4385 1.57326 12.0785 1.57326 12.4652 1.95992C12.8519 2.34659 12.8519 2.98659 12.4652 3.37326L7.62521 8.21325C7.42521 8.39992 7.17188 8.50659 6.91854 8.50659Z" fill="#222A40"/>
<path d="M25.0789 8.50659C24.8255 8.50659 24.5722 8.41326 24.3722 8.21325L19.5322 3.37326C19.1455 2.98659 19.1455 2.34659 19.5322 1.95992C19.9189 1.57326 20.5589 1.57326 20.9455 1.95992L25.7855 6.79992C26.1722 7.18659 26.1722 7.82659 25.7855 8.21325C25.5989 8.39992 25.3322 8.50659 25.0789 8.50659Z" fill="#222A40"/>
<path d="M26.948 14.1334C26.8546 14.1334 26.7613 14.1334 26.668 14.1334H26.3613H5.33464C4.4013 14.1467 3.33464 14.1467 2.5613 13.3734C1.94797 12.7734 1.66797 11.84 1.66797 10.4667C1.66797 6.80005 4.34797 6.80005 5.62797 6.80005H26.3746C27.6546 6.80005 30.3346 6.80005 30.3346 10.4667C30.3346 11.8534 30.0546 12.7734 29.4413 13.3734C28.748 14.0667 27.8146 14.1334 26.948 14.1334ZM5.62797 12.1334H26.6813C27.2813 12.1467 27.8413 12.1467 28.028 11.96C28.1213 11.8667 28.3213 11.5467 28.3213 10.4667C28.3213 8.96005 27.948 8.80005 26.3613 8.80005H5.62797C4.0413 8.80005 3.66797 8.96005 3.66797 10.4667C3.66797 11.5467 3.8813 11.8667 3.9613 11.96C4.14797 12.1334 4.7213 12.1334 5.30797 12.1334H5.62797Z" fill="#222A40"/>
<path d="M13.0117 24.4001C12.4651 24.4001 12.0117 23.9467 12.0117 23.4001V18.6667C12.0117 18.1201 12.4651 17.6667 13.0117 17.6667C13.5584 17.6667 14.0117 18.1201 14.0117 18.6667V23.4001C14.0117 23.9601 13.5584 24.4001 13.0117 24.4001Z" fill="#222A40"/>
<path d="M19.1484 24.4001C18.6018 24.4001 18.1484 23.9467 18.1484 23.4001V18.6667C18.1484 18.1201 18.6018 17.6667 19.1484 17.6667C19.6951 17.6667 20.1484 18.1201 20.1484 18.6667V23.4001C20.1484 23.9601 19.6951 24.4001 19.1484 24.4001Z" fill="#222A40"/>
<path d="M19.8517 30.3333H11.8117C7.03837 30.3333 5.9717 27.4933 5.55837 25.0266L3.67837 13.4932C3.58504 12.9466 3.95837 12.4399 4.50504 12.3466C5.0517 12.2533 5.55837 12.6266 5.6517 13.1733L7.5317 24.6933C7.91837 27.0533 8.71837 28.3333 11.8117 28.3333H19.8517C23.2784 28.3333 23.665 27.1333 24.105 24.8133L26.345 13.1466C26.4517 12.5999 26.9717 12.2399 27.5184 12.3599C28.065 12.4666 28.4117 12.9866 28.305 13.5332L26.065 25.1999C25.545 27.9066 24.6784 30.3333 19.8517 30.3333Z" fill="#222A40"/>
</svg>
