<svg width="40" height="40" viewBox="0 0 40 40" fill="none" xmlns="http://www.w3.org/2000/svg">
<path d="M36.6667 14.2V6.63337C36.6667 4.28337 35.6 3.33337 32.95 3.33337H26.2167C23.5667 3.33337 22.5 4.28337 22.5 6.63337V14.1834C22.5 16.55 23.5667 17.4834 26.2167 17.4834H32.95C35.6 17.5 36.6667 16.55 36.6667 14.2Z" stroke="#642DAA" stroke-width="1.5" stroke-linecap="round" stroke-linejoin="round"/>
<path d="M36.6667 32.95V26.2167C36.6667 23.5667 35.6 22.5 32.95 22.5H26.2167C23.5667 22.5 22.5 23.5667 22.5 26.2167V32.95C22.5 35.6 23.5667 36.6667 26.2167 36.6667H32.95C35.6 36.6667 36.6667 35.6 36.6667 32.95Z" stroke="#642DAA" stroke-width="1.5" stroke-linecap="round" stroke-linejoin="round"/>
<path d="M17.4987 14.2V6.63337C17.4987 4.28337 16.432 3.33337 13.782 3.33337H7.0487C4.3987 3.33337 3.33203 4.28337 3.33203 6.63337V14.1834C3.33203 16.55 4.3987 17.4834 7.0487 17.4834H13.782C16.432 17.5 17.4987 16.55 17.4987 14.2Z" stroke="#642DAA" stroke-width="1.5" stroke-linecap="round" stroke-linejoin="round"/>
<path d="M17.4987 32.95V26.2167C17.4987 23.5667 16.432 22.5 13.782 22.5H7.0487C4.3987 22.5 3.33203 23.5667 3.33203 26.2167V32.95C3.33203 35.6 4.3987 36.6667 7.0487 36.6667H13.782C16.432 36.6667 17.4987 35.6 17.4987 32.95Z" stroke="#642DAA" stroke-width="1.5" stroke-linecap="round" stroke-linejoin="round"/>
</svg>
