<svg width="32" height="32" viewBox="0 0 32 32" fill="none" xmlns="http://www.w3.org/2000/svg">
<path d="M16.0252 27.3733C12.9185 27.3733 9.81186 26.88 6.86519 25.8933C5.74519 25.5066 4.89186 24.72 4.51852 23.6933C4.13186 22.6666 4.26519 21.5333 4.87852 20.52L6.41186 17.9733C6.73186 17.44 7.02519 16.3733 7.02519 15.7466V11.8933C7.02519 6.93331 11.0652 2.89331 16.0252 2.89331C20.9852 2.89331 25.0252 6.93331 25.0252 11.8933V15.7466C25.0252 16.36 25.3185 17.44 25.6385 17.9866L27.1585 20.52C27.7319 21.48 27.8385 22.64 27.4519 23.6933C27.0652 24.7466 26.2252 25.5466 25.1719 25.8933C22.2385 26.88 19.1319 27.3733 16.0252 27.3733ZM16.0252 4.89331C12.1719 4.89331 9.02519 8.02664 9.02519 11.8933V15.7466C9.02519 16.72 8.62519 18.16 8.13186 19L6.59852 21.5466C6.30519 22.04 6.22519 22.56 6.39852 23C6.55852 23.4533 6.95852 23.8 7.50519 23.9866C13.0785 25.8533 18.9852 25.8533 24.5585 23.9866C25.0385 23.8266 25.4119 23.4666 25.5852 22.9866C25.7585 22.5066 25.7185 21.9866 25.4519 21.5466L23.9185 19C23.4119 18.1333 23.0252 16.7066 23.0252 15.7333V11.8933C23.0252 8.02664 19.8919 4.89331 16.0252 4.89331Z" fill="#222A40"/>
<path d="M18.5062 5.25324C18.4128 5.25324 18.3195 5.23991 18.2262 5.21324C17.8395 5.10658 17.4662 5.02658 17.1062 4.97324C15.9728 4.82658 14.8795 4.90658 13.8528 5.21324C13.4795 5.33324 13.0795 5.21324 12.8262 4.93324C12.5728 4.65324 12.4928 4.25324 12.6395 3.89324C13.1862 2.49324 14.5195 1.57324 16.0395 1.57324C17.5595 1.57324 18.8928 2.47991 19.4395 3.89324C19.5728 4.25324 19.5062 4.65324 19.2528 4.93324C19.0528 5.14658 18.7728 5.25324 18.5062 5.25324Z" fill="#222A40"/>
<path d="M16.0273 30.4133C14.7073 30.4133 13.4273 29.88 12.494 28.9467C11.5607 28.0133 11.0273 26.7333 11.0273 25.4133H13.0273C13.0273 26.2 13.3473 26.9733 13.9073 27.5333C14.4673 28.0933 15.2407 28.4133 16.0273 28.4133C17.6807 28.4133 19.0273 27.0667 19.0273 25.4133H21.0273C21.0273 28.1733 18.7873 30.4133 16.0273 30.4133Z" fill="#222A40"/>
</svg>
