<svg width="24" height="25" viewBox="0 0 24 25" fill="none" xmlns="http://www.w3.org/2000/svg">
<g id="vuesax/outline/box">
<g id="box">
<path id="Vector" d="M11.9991 13.3946C11.8691 13.3946 11.7391 13.3646 11.6191 13.2946L2.78911 8.18458C2.43911 7.97458 2.30911 7.51458 2.51911 7.15458C2.72911 6.79458 3.18911 6.67458 3.54911 6.88458L11.9991 11.7746L20.3991 6.91458C20.7591 6.70458 21.2191 6.83458 21.4291 7.18458C21.6391 7.54458 21.5091 8.00458 21.1591 8.21458L12.3891 13.2946C12.2591 13.3546 12.1291 13.3946 11.9991 13.3946Z" fill="#222A40"/>
<path id="Vector_2" d="M12 22.4548C11.59 22.4548 11.25 22.1148 11.25 21.7048V12.6348C11.25 12.2248 11.59 11.8848 12 11.8848C12.41 11.8848 12.75 12.2248 12.75 12.6348V21.7048C12.75 22.1148 12.41 22.4548 12 22.4548Z" fill="#222A40"/>
<path id="Vector_3" d="M12.0006 22.8447C11.1206 22.8447 10.2506 22.6547 9.56063 22.2747L4.22062 19.3047C2.77062 18.5047 1.64062 16.5747 1.64062 14.9147V9.26473C1.64062 7.60473 2.77062 5.68473 4.22062 4.87473L9.56063 1.91473C10.9306 1.15473 13.0706 1.15473 14.4406 1.91473L19.7806 4.88473C21.2306 5.68473 22.3606 7.61473 22.3606 9.27473V14.9247C22.3606 16.5847 21.2306 18.5047 19.7806 19.3147L14.4406 22.2747C13.7506 22.6547 12.8806 22.8447 12.0006 22.8447ZM12.0006 2.84473C11.3706 2.84473 10.7506 2.97473 10.2906 3.22473L4.95062 6.19473C3.99062 6.72473 3.14063 8.16473 3.14063 9.26473V14.9147C3.14063 16.0147 3.99062 17.4547 4.95062 17.9947L10.2906 20.9647C11.2006 21.4747 12.8006 21.4747 13.7106 20.9647L19.0506 17.9947C20.0106 17.4547 20.8606 16.0247 20.8606 14.9147V9.26473C20.8606 8.16473 20.0106 6.72473 19.0506 6.18473L13.7106 3.21473C13.2506 2.97473 12.6306 2.84473 12.0006 2.84473Z" fill="#222A40"/>
</g>
</g>
</svg>
