<svg width="16" height="17" viewBox="0 0 16 17" fill="none" xmlns="http://www.w3.org/2000/svg">
<path d="M11.7054 12.4797H4.29203C1.6387 12.4797 0.832031 11.673 0.832031 9.01967V4.79301C0.832031 2.13967 1.6387 1.33301 4.29203 1.33301H11.6987C14.352 1.33301 15.1587 2.13967 15.1587 4.79301V9.01301C15.1654 11.673 14.3587 12.4797 11.7054 12.4797ZM4.29203 2.33301C2.1987 2.33301 1.83203 2.69967 1.83203 4.79301V9.01301C1.83203 11.1063 2.1987 11.473 4.29203 11.473H11.6987C13.792 11.473 14.1587 11.1063 14.1587 9.01301V4.79301C14.1587 2.69967 13.792 2.33301 11.6987 2.33301H4.29203Z" fill="#757575"/>
<path d="M8 15.6671C7.72667 15.6671 7.5 15.4405 7.5 15.1671V11.9805C7.5 11.7071 7.72667 11.4805 8 11.4805C8.27333 11.4805 8.5 11.7071 8.5 11.9805V15.1671C8.5 15.4405 8.27333 15.6671 8 15.6671Z" fill="#757575"/>
<path d="M14.6654 9.66699H1.33203C1.0587 9.66699 0.832031 9.44033 0.832031 9.16699C0.832031 8.89366 1.0587 8.66699 1.33203 8.66699H14.6654C14.9387 8.66699 15.1654 8.89366 15.1654 9.16699C15.1654 9.44033 14.9387 9.66699 14.6654 9.66699Z" fill="#757575"/>
<path d="M11 15.667H5C4.72667 15.667 4.5 15.4403 4.5 15.167C4.5 14.8937 4.72667 14.667 5 14.667H11C11.2733 14.667 11.5 14.8937 11.5 15.167C11.5 15.4403 11.2733 15.667 11 15.667Z" fill="#757575"/>
</svg>
