<svg width="25" height="25" viewBox="0 0 25 25" fill="none" xmlns="http://www.w3.org/2000/svg">
<path d="M8.28125 12.8438H15.2812" stroke="#191F5B" stroke-width="1.5" stroke-miterlimit="10" stroke-linecap="round" stroke-linejoin="round"/>
<path d="M8.28125 16.8438H12.6613" stroke="#191F5B" stroke-width="1.5" stroke-miterlimit="10" stroke-linecap="round" stroke-linejoin="round"/>
<path d="M10.2812 6.64355H14.2812C16.2812 6.64355 16.2812 5.64355 16.2812 4.64355C16.2812 2.64355 15.2812 2.64355 14.2812 2.64355H10.2812C9.28125 2.64355 8.28125 2.64355 8.28125 4.64355C8.28125 6.64355 9.28125 6.64355 10.2812 6.64355Z" stroke="#191F5B" stroke-width="1.5" stroke-miterlimit="10" stroke-linecap="round" stroke-linejoin="round"/>
<path d="M16.2812 4.66309C19.6112 4.84309 21.2812 6.07309 21.2812 10.6431V16.6431C21.2812 20.6431 20.2812 22.6431 15.2812 22.6431H9.28125C4.28125 22.6431 3.28125 20.6431 3.28125 16.6431V10.6431C3.28125 6.08309 4.95125 4.84309 8.28125 4.66309" stroke="#191F5B" stroke-width="1.5" stroke-miterlimit="10" stroke-linecap="round" stroke-linejoin="round"/>
</svg>
