<svg width="23" height="23" viewBox="0 0 23 23" fill="none" xmlns="http://www.w3.org/2000/svg">
<path d="M10.4862 14.3006H12.3929V16.2072H10.4862V14.3006ZM10.4862 6.67389H12.3929V12.3939H10.4862V6.67389ZM11.43 1.90723C6.16765 1.90723 1.90625 6.17816 1.90625 11.4406C1.90625 16.703 6.16765 20.9739 11.43 20.9739C16.702 20.9739 20.9729 16.703 20.9729 11.4406C20.9729 6.17816 16.702 1.90723 11.43 1.90723ZM11.4396 19.0672C7.22585 19.0672 3.81292 15.6543 3.81292 11.4406C3.81292 7.22683 7.22585 3.81389 11.4396 3.81389C15.6533 3.81389 19.0662 7.22683 19.0662 11.4406C19.0662 15.6543 15.6533 19.0672 11.4396 19.0672Z" fill="#DC2626"/>
</svg>
