<svg width="22" height="38" viewBox="0 0 22 38" fill="none" xmlns="http://www.w3.org/2000/svg">
<path d="M10.082 14.4163H11.9154V16.2497H10.082V14.4163ZM10.082 18.083H11.9154V23.583H10.082V18.083ZM10.9987 9.83301C5.9387 9.83301 1.83203 13.9397 1.83203 18.9997C1.83203 24.0597 5.9387 28.1663 10.9987 28.1663C16.0587 28.1663 20.1654 24.0597 20.1654 18.9997C20.1654 13.9397 16.0587 9.83301 10.9987 9.83301ZM10.9987 26.333C6.9562 26.333 3.66536 23.0422 3.66536 18.9997C3.66536 14.9572 6.9562 11.6663 10.9987 11.6663C15.0412 11.6663 18.332 14.9572 18.332 18.9997C18.332 23.0422 15.0412 26.333 10.9987 26.333Z" fill="#06B6D4"/>
</svg>
