<svg width="25" height="25" viewBox="0 0 25 25" fill="none" xmlns="http://www.w3.org/2000/svg">
<path d="M9.44131 11.5136C9.34131 11.5036 9.22131 11.5036 9.11131 11.5136C6.73131 11.4336 4.84131 9.48355 4.84131 7.08355C4.84131 4.63355 6.82131 2.64355 9.28131 2.64355C11.7313 2.64355 13.7213 4.63355 13.7213 7.08355C13.7113 9.48355 11.8213 11.4336 9.44131 11.5136Z" stroke="#191F5B" stroke-width="1.5" stroke-linecap="round" stroke-linejoin="round"/>
<path d="M16.691 4.64355C18.631 4.64355 20.191 6.21355 20.191 8.14355C20.191 10.0336 18.691 11.5736 16.821 11.6436C16.741 11.6336 16.651 11.6336 16.561 11.6436" stroke="#191F5B" stroke-width="1.5" stroke-linecap="round" stroke-linejoin="round"/>
<path d="M4.44146 15.2036C2.02146 16.8236 2.02146 19.4636 4.44146 21.0736C7.19146 22.9136 11.7015 22.9136 14.4515 21.0736C16.8715 19.4536 16.8715 16.8136 14.4515 15.2036C11.7115 13.3736 7.20146 13.3736 4.44146 15.2036Z" stroke="#191F5B" stroke-width="1.5" stroke-linecap="round" stroke-linejoin="round"/>
<path d="M18.6211 20.6436C19.3411 20.4936 20.0211 20.2036 20.5811 19.7736C22.1411 18.6036 22.1411 16.6736 20.5811 15.5036C20.0311 15.0836 19.3611 14.8036 18.6511 14.6436" stroke="#191F5B" stroke-width="1.5" stroke-linecap="round" stroke-linejoin="round"/>
</svg>
