<svg width="25" height="25" viewBox="0 0 25 25" fill="none" xmlns="http://www.w3.org/2000/svg">
<path d="M12.2812 15.6436C13.9381 15.6436 15.2812 14.3004 15.2812 12.6436C15.2812 10.9867 13.9381 9.64355 12.2812 9.64355C10.6244 9.64355 9.28125 10.9867 9.28125 12.6436C9.28125 14.3004 10.6244 15.6436 12.2812 15.6436Z" stroke="#191F5B" stroke-width="1.5" stroke-miterlimit="10" stroke-linecap="round" stroke-linejoin="round"/>
<path d="M2.28125 13.524V11.764C2.28125 10.724 3.13125 9.86398 4.18125 9.86398C5.99125 9.86398 6.73125 8.58398 5.82125 7.01398C5.30125 6.11398 5.61125 4.94398 6.52125 4.42398L8.25125 3.43398C9.04125 2.96398 10.0613 3.24398 10.5312 4.03398L10.6412 4.22398C11.5412 5.79398 13.0212 5.79398 13.9312 4.22398L14.0413 4.03398C14.5113 3.24398 15.5313 2.96398 16.3213 3.43398L18.0513 4.42398C18.9613 4.94398 19.2712 6.11398 18.7512 7.01398C17.8412 8.58398 18.5813 9.86398 20.3913 9.86398C21.4313 9.86398 22.2913 10.714 22.2913 11.764V13.524C22.2913 14.564 21.4413 15.424 20.3913 15.424C18.5813 15.424 17.8412 16.704 18.7512 18.274C19.2712 19.184 18.9613 20.344 18.0513 20.864L16.3213 21.854C15.5313 22.324 14.5113 22.044 14.0413 21.254L13.9312 21.064C13.0312 19.494 11.5512 19.494 10.6412 21.064L10.5312 21.254C10.0613 22.044 9.04125 22.324 8.25125 21.854L6.52125 20.864C5.61125 20.344 5.30125 19.174 5.82125 18.274C6.73125 16.704 5.99125 15.424 4.18125 15.424C3.13125 15.424 2.28125 14.564 2.28125 13.524Z" stroke="#191F5B" stroke-width="1.5" stroke-miterlimit="10" stroke-linecap="round" stroke-linejoin="round"/>
</svg>
