<svg width="22" height="38" viewBox="0 0 22 38" fill="none" xmlns="http://www.w3.org/2000/svg">
<path d="M15.2062 14.948L9.16536 20.9888L5.87453 17.7072L4.58203 18.9997L9.16536 23.583L16.4987 16.2497L15.2062 14.948ZM10.9987 9.83301C5.9387 9.83301 1.83203 13.9397 1.83203 18.9997C1.83203 24.0597 5.9387 28.1663 10.9987 28.1663C16.0587 28.1663 20.1654 24.0597 20.1654 18.9997C20.1654 13.9397 16.0587 9.83301 10.9987 9.83301ZM10.9987 26.333C6.94703 26.333 3.66536 23.0513 3.66536 18.9997C3.66536 14.948 6.94703 11.6663 10.9987 11.6663C15.0504 11.6663 18.332 14.948 18.332 18.9997C18.332 23.0513 15.0504 26.333 10.9987 26.333Z" fill="#15803D"/>
</svg>
